<svg width="20" height="20" viewBox="0 0 20 20" fill="none" xmlns="http://www.w3.org/2000/svg">
<path d="M11.5945 2.88302C11.6588 2.64291 11.8158 2.43815 12.031 2.31377C12.2462 2.18938 12.5021 2.15556 12.7422 2.21974C13.9542 2.53549 15.0601 3.16885 15.9457 4.05449C16.8314 4.94013 17.4647 6.04599 17.7805 7.25802C17.8152 7.37784 17.8257 7.50339 17.8113 7.6273C17.7968 7.75122 17.7578 7.87101 17.6965 7.97966C17.6352 8.08831 17.5529 8.18363 17.4543 8.26004C17.3556 8.33645 17.2428 8.39242 17.1223 8.42465C17.0018 8.45688 16.876 8.46474 16.7524 8.44776C16.6288 8.43078 16.5099 8.38931 16.4025 8.32577C16.2952 8.26223 16.2016 8.1779 16.1272 8.07773C16.0529 7.97756 15.9993 7.86355 15.9695 7.7424C15.7367 6.84959 15.27 6.03501 14.6176 5.38259C13.9652 4.73017 13.1506 4.2635 12.2578 4.03068C12.0177 3.9664 11.8129 3.80939 11.6886 3.59418C11.5642 3.37897 11.5304 3.12317 11.5945 2.88302ZM18.4258 13.7174C18.2768 14.8515 17.7201 15.8926 16.8597 16.6462C15.9992 17.3998 14.8938 17.8145 13.75 17.8127C7.37422 17.8127 2.18751 12.626 2.18751 6.25021C2.18573 5.10638 2.60039 4.00102 3.35402 3.14056C4.10765 2.28011 5.14873 1.72341 6.28282 1.57443C6.61697 1.53382 6.95532 1.60194 7.24772 1.76869C7.54013 1.93544 7.77105 2.19195 7.90626 2.50021L9.55547 6.18224C9.55723 6.18707 9.55932 6.19177 9.56172 6.1963C9.66308 6.43319 9.70428 6.69147 9.68165 6.94814C9.65902 7.2048 9.57327 7.45189 9.43204 7.6674C9.41194 7.6988 9.38975 7.72881 9.36563 7.75724L7.87657 9.53146C8.42813 10.5346 9.47813 11.5752 10.493 12.126L12.2359 10.6416C12.2639 10.6182 12.2931 10.5963 12.3234 10.576C12.5397 10.4309 12.7889 10.3424 13.0483 10.3186C13.3076 10.2949 13.5688 10.3366 13.8078 10.4401L13.8219 10.4463L17.5 12.094C17.8082 12.2293 18.0646 12.4602 18.2314 12.7526C18.3981 13.045 18.4663 13.3833 18.4258 13.7174ZM16.5266 13.7127L13.2453 12.2432L11.493 13.733C11.4654 13.7569 11.4365 13.7791 11.4063 13.7994C11.181 13.9488 10.9209 14.0372 10.6512 14.0559C10.3816 14.0747 10.1117 14.0232 9.86797 13.9065C8.3461 13.1721 6.82969 11.6658 6.09376 10.1565C5.97672 9.91378 5.92443 9.64497 5.94195 9.37612C5.95947 9.10727 6.04622 8.84752 6.19376 8.62208C6.21412 8.59067 6.23657 8.56066 6.26094 8.53224L7.75782 6.75724L6.28751 3.47599C5.65579 3.6152 5.09068 3.96625 4.68596 4.47087C4.28124 4.97549 4.06125 5.60334 4.06251 6.25021C4.06561 8.81854 5.08725 11.2808 6.90333 13.0969C8.71942 14.913 11.1817 15.9346 13.75 15.9377C14.3973 15.9395 15.0257 15.7198 15.5308 15.315C16.0359 14.9102 16.3873 14.3448 16.5266 13.7127ZM11.3773 6.99005C11.7607 7.1109 12.1093 7.3224 12.3936 7.60665C12.6778 7.89089 12.8893 8.23948 13.0102 8.62287C13.07 8.81308 13.1889 8.97927 13.3496 9.09728C13.5103 9.2153 13.7045 9.27899 13.9039 9.27912C13.9995 9.279 14.0946 9.26451 14.1859 9.23615C14.4222 9.1614 14.6192 8.99617 14.734 8.77658C14.8488 8.55699 14.8719 8.3009 14.7984 8.06427C14.587 7.393 14.2168 6.78264 13.7191 6.285C13.2215 5.78735 12.6111 5.4171 11.9398 5.20568C11.8217 5.16604 11.6969 5.15034 11.5726 5.15952C11.4483 5.1687 11.3271 5.20255 11.2161 5.25912C11.105 5.31568 11.0064 5.39381 10.9259 5.48895C10.8454 5.58408 10.7847 5.6943 10.7473 5.81317C10.7099 5.93205 10.6966 6.05718 10.7081 6.18126C10.7197 6.30533 10.7558 6.42587 10.8145 6.53581C10.8731 6.64575 10.9531 6.74289 11.0498 6.82156C11.1464 6.90022 11.2578 6.95883 11.3773 6.99396V6.99005Z" fill="white"/>
</svg>
