<svg width="16" height="16" viewBox="0 0 16 16" fill="none" xmlns="http://www.w3.org/2000/svg">
<path d="M14.5 7.99979V12.9998C14.5 13.6628 14.2366 14.2987 13.7678 14.7676C13.2989 15.2364 12.663 15.4998 12 15.4998H8.5C8.36739 15.4998 8.24021 15.4471 8.14645 15.3533C8.05268 15.2596 8 15.1324 8 14.9998C8 14.8672 8.05268 14.74 8.14645 14.6462C8.24021 14.5525 8.36739 14.4998 8.5 14.4998H12C12.3978 14.4998 12.7794 14.3418 13.0607 14.0605C13.342 13.7791 13.5 13.3976 13.5 12.9998H12C11.6022 12.9998 11.2206 12.8418 10.9393 12.5605C10.658 12.2791 10.5 11.8976 10.5 11.4998V8.99979C10.5 8.60197 10.658 8.22044 10.9393 7.93913C11.2206 7.65783 11.6022 7.49979 12 7.49979H13.4781C13.3835 6.46038 12.9951 5.46935 12.3582 4.64245C11.7214 3.81555 10.8624 3.18692 9.88163 2.83C8.90085 2.47308 7.83875 2.40259 6.8194 2.62677C5.80005 2.85096 4.86553 3.36056 4.125 4.09604C3.20416 5.00474 2.6362 6.2111 2.5225 7.49979H4C4.39782 7.49979 4.77936 7.65783 5.06066 7.93913C5.34196 8.22044 5.5 8.60197 5.5 8.99979V11.4998C5.5 11.8976 5.34196 12.2791 5.06066 12.5605C4.77936 12.8418 4.39782 12.9998 4 12.9998H3C2.60218 12.9998 2.22064 12.8418 1.93934 12.5605C1.65804 12.2791 1.5 11.8976 1.5 11.4998V7.99979C1.5014 6.71223 1.88476 5.45403 2.60156 4.38444C3.31836 3.31485 4.33638 2.48196 5.52674 1.9912C6.71711 1.50044 8.02632 1.37386 9.28866 1.6275C10.551 1.88114 11.7097 2.50358 12.6181 3.41604C13.2179 4.01873 13.6929 4.73385 14.0158 5.52041C14.3387 6.30697 14.5033 7.14953 14.5 7.99979Z" fill="#2B3990"/>
</svg>
